<?xml version="1.0" standalone="no"?>
<!DOCTYPE svg PUBLIC "-//W3C//DTD SVG 20010904//EN"
 "http://www.w3.org/TR/2001/REC-SVG-20010904/DTD/svg10.dtd">
<svg version="1.0" xmlns="http://www.w3.org/2000/svg"
 width="720.000000pt" height="720.000000pt" viewBox="0 0 720.000000 720.000000"
 preserveAspectRatio="xMidYMid meet">
<metadata>
Created by potrace 1.14, written by Peter Selinger 2001-2017
</metadata>
<g transform="translate(0.000000,720.000000) scale(0.100000,-0.100000)"
fill="#000000" stroke="none">
<path d="M3285 5520 c-608 -48 -1161 -410 -1459 -955 -163 -299 -244 -664
-217 -986 6 -73 13 -145 16 -159 43 -224 91 -374 176 -542 31 -62 43 -78 51
-67 8 11 9 10 4 -5 -6 -18 31 -92 42 -82 3 3 -3 16 -14 27 -19 22 -19 22 6 14
14 -4 28 -12 31 -17 3 -5 10 -8 15 -7 21 4 28 -2 14 -12 -12 -8 -10 -9 8 -4
22 6 43 -6 55 -35 4 -8 5 3 2 25 l-5 40 14 -35 c23 -61 77 -163 119 -225 55
-81 138 -176 148 -169 5 3 9 -1 9 -8 0 -10 2 -10 9 1 7 11 11 10 20 -5 6 -11
11 -13 11 -6 0 6 -8 20 -18 30 -10 10 -18 28 -17 40 1 12 -2 19 -6 16 -5 -3
-20 13 -34 35 -28 45 -31 55 -12 46 6 -4 5 -1 -4 7 -9 7 -14 19 -11 27 3 8 0
11 -6 7 -5 -3 -13 1 -16 10 -3 8 -2 12 4 9 6 -3 7 1 4 9 -3 9 -10 16 -15 16
-5 0 -8 3 -7 8 5 19 -15 72 -24 66 -6 -4 -8 -3 -5 3 4 6 -5 55 -18 109 -30
119 -34 276 -9 381 43 186 171 342 336 409 l47 19 -6 86 c-7 106 9 221 49 344
131 404 533 662 959 616 259 -28 482 -154 632 -356 72 -96 100 -151 138 -267
48 -145 57 -332 25 -487 -39 -181 -150 -360 -311 -499 l-50 -44 25 -19 c14
-10 60 -42 103 -71 76 -52 98 -70 55 -47 -41 22 -250 172 -332 238 -162 132
-336 261 -350 261 -4 0 -4 -6 0 -12 4 -8 3 -10 -2 -5 -5 5 -9 13 -9 19 0 5
-29 26 -65 45 -48 27 -59 30 -42 14 12 -12 19 -27 15 -34 -5 -8 -2 -8 9 1 13
10 19 9 35 -5 10 -10 14 -15 8 -11 -6 4 -17 3 -25 -2 -8 -5 -19 -6 -25 -4 -5
3 1 -4 14 -15 13 -12 18 -21 13 -21 -6 0 -14 5 -17 10 -3 6 -11 10 -17 10 -7
0 -6 -6 2 -15 7 -8 8 -15 3 -15 -5 0 -15 -16 -23 -35 -8 -19 -20 -35 -27 -35
-7 0 -13 -11 -13 -26 0 -14 -4 -23 -10 -19 -5 3 -10 -3 -10 -14 0 -12 -6 -21
-14 -21 -10 0 -13 -11 -12 -39 2 -33 10 -47 49 -85 26 -24 47 -42 47 -40 0 3
7 -2 17 -11 12 -13 13 -19 4 -25 -10 -5 -9 -9 4 -13 9 -4 13 -3 10 3 -3 6 -1
10 4 10 6 0 11 -8 11 -17 1 -19 269 -236 455 -368 61 -43 115 -83 120 -88 17
-17 -68 36 -89 55 -11 10 -26 18 -33 18 -7 0 -13 5 -13 11 0 6 -9 9 -20 6 -11
-3 -18 -1 -15 3 3 5 -4 14 -15 20 -11 6 -20 7 -20 3 -1 -4 -10 3 -20 16 -11
13 -20 20 -20 15 0 -4 -7 1 -15 12 -8 10 -15 15 -15 11 0 -4 -44 27 -97 70
-186 147 -298 226 -278 193 19 -31 -171 60 -236 113 -31 26 -32 28 -9 23 67
-16 -77 39 -159 60 -156 40 -315 31 -430 -25 -84 -40 -182 -136 -136 -132 6 1
10 8 10 15 0 8 3 17 6 20 3 3 5 -7 5 -24 0 -16 -4 -28 -9 -27 -5 1 -11 -4 -12
-11 -2 -7 -1 -8 2 -2 3 8 9 7 19 0 10 -10 12 -8 9 9 -2 12 1 21 7 21 7 0 7 4
0 13 -7 8 -7 18 -2 27 6 8 10 11 10 6 0 -5 7 -3 15 4 10 9 15 9 15 1 0 -6 5
-11 11 -11 8 0 8 5 -1 15 -10 12 -16 13 -26 4 -10 -8 -14 -8 -14 -1 0 6 9 16
19 22 25 13 32 13 29 -1 -2 -6 4 -14 12 -16 9 -3 11 -1 5 4 -21 17 -13 33 25
53 32 16 44 18 61 9 16 -8 24 -8 33 2 8 9 7 11 -5 6 -9 -3 -22 -1 -30 5 -11 8
-11 9 3 4 10 -3 20 -1 23 4 3 5 16 9 28 9 12 0 33 3 46 7 22 7 23 6 10 -8 -7
-9 -24 -15 -37 -13 -20 2 -23 -1 -18 -18 3 -14 -4 -33 -19 -53 -21 -27 -25
-44 -25 -98 0 -60 -3 -69 -30 -98 -16 -17 -30 -42 -30 -54 0 -13 -4 -24 -10
-24 -5 0 -10 -13 -10 -30 0 -16 3 -30 6 -30 11 0 34 29 34 44 0 9 8 16 20 16
16 0 20 -7 20 -34 0 -19 -4 -38 -10 -41 -5 -3 -10 -24 -10 -46 0 -38 -6 -44
-37 -40 -7 1 -13 -2 -13 -8 0 -5 -3 -18 -7 -28 -3 -10 -3 -15 2 -11 4 4 16 3
25 -2 13 -7 20 -6 24 6 3 9 3 21 -1 26 -3 6 -2 8 4 5 6 -4 24 11 40 31 27 34
29 38 12 39 -11 1 -17 -2 -14 -7 3 -5 2 -11 -3 -14 -4 -2 -8 5 -8 18 0 23 19
28 44 12 7 -4 24 1 40 12 85 61 224 74 342 33 87 -31 312 -159 391 -224 19
-15 -18 5 -81 44 -244 152 -360 196 -483 185 -38 -3 -91 -16 -118 -27 -65 -28
-140 -110 -167 -180 -19 -51 -39 -144 -34 -161 1 -5 -2 -8 -8 -8 -5 0 -10 5
-10 12 0 6 -2 9 -5 6 -9 -8 6 -38 16 -32 10 6 15 -5 23 -57 5 -29 3 -38 -10
-43 -14 -6 -15 -4 -4 10 11 12 11 17 2 23 -7 4 -10 15 -7 23 8 19 -11 33 -21
17 -4 -8 -3 -9 4 -5 7 4 12 2 12 -4 0 -8 -10 -10 -27 -6 -16 3 -22 3 -15 0 6
-3 9 -11 5 -17 -4 -6 -1 -8 8 -5 10 4 15 -1 16 -14 2 -25 47 -91 52 -77 2 6
-1 14 -7 18 -6 4 -7 12 -3 20 7 11 16 -5 25 -49 1 -3 6 -13 12 -24 16 -27 23
-7 15 40 -4 23 -4 61 0 85 l7 44 0 -45 c0 -107 1 -110 22 -57 20 53 61 111 99
142 44 36 90 58 76 36 -3 -5 5 -13 17 -17 12 -3 31 -15 42 -25 11 -11 30 -19
43 -19 13 0 23 -6 23 -12 0 -9 4 -8 10 2 7 11 10 11 10 2 0 -8 5 -10 12 -6 7
5 9 2 6 -7 -4 -9 1 -15 11 -16 18 -2 141 -79 152 -96 4 -5 12 -7 18 -3 7 5 8
0 2 -16 -4 -13 -18 -24 -30 -26 -11 -2 -21 -8 -21 -13 0 -5 -6 -9 -12 -8 -36
4 -79 -2 -73 -11 3 -5 0 -10 -7 -11 -62 -5 -128 -21 -122 -30 3 -5 -5 -9 -18
-9 -13 0 -34 -3 -46 -7 -18 -4 -21 -8 -10 -15 26 -18 -37 4 -121 43 -93 44
-95 44 -85 27 6 -10 5 -10 -8 -1 -8 7 -19 9 -23 5 -5 -4 -5 0 0 8 6 12 5 13
-6 2 -17 -16 -32 -16 -24 1 4 6 0 4 -9 -7 -8 -10 -21 -16 -28 -14 -7 3 -30 -1
-52 -8 -33 -12 -37 -12 -33 1 4 9 1 12 -9 8 -7 -3 -14 -13 -14 -22 0 -9 -3
-12 -8 -6 -4 6 -20 11 -36 12 -18 1 -24 -2 -16 -7 8 -5 -4 -10 -31 -14 -24 -3
-50 -7 -56 -8 -7 -1 -13 -5 -13 -10 0 -4 -3 -7 -7 -6 -13 3 -63 -24 -63 -34 0
-4 -6 -8 -14 -8 -8 0 -17 -8 -19 -17 -3 -13 -5 -12 -6 5 -1 14 -5 20 -12 17
-6 -4 -8 -14 -4 -22 3 -9 -1 -26 -10 -39 -8 -13 -11 -25 -6 -29 5 -3 11 1 14
7 3 9 7 7 12 -6 5 -11 3 -21 -6 -28 -10 -7 -8 -8 9 -3 13 4 22 2 22 -5 0 -6 5
-8 10 -5 6 3 10 -2 10 -11 0 -10 3 -15 6 -11 4 3 22 0 41 -8 19 -8 48 -16 64
-17 18 -1 29 -8 29 -18 0 -13 1 -13 10 0 8 12 10 12 10 1 0 -8 7 -11 20 -8 11
3 20 1 20 -5 0 -6 6 -8 14 -5 23 9 159 -12 168 -25 6 -10 8 -10 8 0 0 11 3 10
14 -1 10 -9 33 -14 65 -13 27 1 48 -1 46 -4 -2 -3 39 -6 90 -7 51 -2 105 -7
119 -12 70 -27 1285 -38 1294 -12 2 5 48 7 102 4 78 -3 100 -1 100 9 0 9 3 9
10 -2 9 -13 10 -13 10 0 0 13 1 13 10 0 5 -8 10 -10 10 -5 0 6 10 10 23 11 12
0 31 4 41 9 14 6 17 5 11 -4 -6 -10 -3 -11 12 -2 11 6 23 7 27 4 3 -3 6 -2 6
3 0 5 18 8 40 6 67 -7 425 42 490 66 8 3 17 6 20 7 88 23 110 30 110 35 0 4
12 12 27 19 19 9 23 15 14 20 -9 6 -6 10 11 15 19 5 20 8 8 16 -13 9 -13 10 0
10 13 0 13 1 0 10 -8 5 -11 10 -6 10 26 0 -47 40 -76 41 -26 0 -29 2 -14 8 20
8 20 8 0 14 -10 4 -30 14 -44 22 -13 8 -27 11 -30 7 -3 -4 -14 -9 -25 -10 -11
-2 -25 -7 -31 -10 -5 -4 -2 0 9 8 10 8 58 47 105 86 228 187 415 504 502 849
16 66 30 123 30 126 0 3 -53 -47 -117 -111 -65 -63 -152 -137 -193 -165 -73
-48 -222 -118 -277 -131 -60 -13 -136 -25 -139 -21 -2 2 17 34 42 73 127 194
236 483 269 709 14 100 16 123 16 290 1 299 -54 534 -187 803 -89 180 -180
308 -328 460 -160 165 -307 272 -511 372 -296 145 -618 206 -950 180z m560
-518 c-3 -3 -11 0 -18 7 -9 10 -8 11 6 5 10 -3 15 -9 12 -12z m110 -40 c-3 -3
-11 0 -18 7 -9 10 -8 11 6 5 10 -3 15 -9 12 -12z m-1282 -2272 c-3 -12 -8 -19
-11 -16 -5 6 5 36 12 36 2 0 2 -9 -1 -20z m-147 -167 c-7 -7 -26 7 -26 19 0 6
6 6 15 -2 9 -7 13 -15 11 -17z m-365 -8 c5 4 6 -1 2 -10 -5 -13 -7 -14 -14 -3
-5 7 -8 18 -8 23 0 6 3 4 6 -3 2 -6 9 -10 14 -7z m59 -71 c0 -8 -19 -13 -24
-6 -3 5 1 9 9 9 8 0 15 -2 15 -3z m10 -35 c0 -8 5 -8 15 1 12 10 15 10 15 -4
0 -9 6 -15 13 -13 6 1 11 -4 10 -10 -2 -7 2 -13 8 -13 8 0 7 -6 -2 -17 -8 -10
-9 -14 -2 -10 6 4 14 3 17 -2 10 -15 -20 -7 -35 10 -50 54 -61 69 -51 69 7 0
12 -5 12 -11z m688 -36 c-10 -2 -26 -2 -35 0 -10 3 -2 5 17 5 19 0 27 -2 18
-5z m-71 -9 c-3 -3 -12 -4 -19 -1 -8 3 -5 6 6 6 11 1 17 -2 13 -5z m-37 -13
c0 -6 -4 -12 -8 -15 -5 -3 -9 1 -9 9 0 8 4 15 9 15 4 0 8 -4 8 -9z m805 -91
c10 -11 16 -20 13 -20 -3 0 -13 9 -23 20 -10 11 -16 20 -13 20 3 0 13 -9 23
-20z m56 -47 c13 -16 12 -17 -3 -4 -17 13 -22 21 -14 21 2 0 10 -8 17 -17z
m1446 -229 c-3 -3 -12 -4 -19 -1 -8 3 -5 6 6 6 11 1 17 -2 13 -5z m76 -41 c-7
-2 -19 -2 -25 0 -7 3 -2 5 12 5 14 0 19 -2 13 -5z"/>
<path d="M2240 2397 c0 -2 6 -10 14 -16 11 -9 16 -9 22 1 4 7 4 10 -1 6 -4 -4
-14 -3 -22 3 -7 6 -13 9 -13 6z"/>
<path d="M2318 2893 c-6 -15 -18 -36 -26 -45 -15 -18 -9 -73 8 -63 4 3 11 -3
13 -12 3 -10 3 2 1 27 -4 51 4 92 16 85 4 -3 10 2 14 10 10 28 -14 26 -26 -2z"/>
<path d="M2260 2775 c0 -5 5 -17 10 -25 5 -8 10 -10 10 -5 0 6 -5 17 -10 25
-5 8 -10 11 -10 5z"/>
<path d="M2311 2714 c0 -11 3 -14 6 -6 3 7 2 16 -1 19 -3 4 -6 -2 -5 -13z"/>
<path d="M2291 2704 c0 -11 3 -14 6 -6 3 7 2 16 -1 19 -3 4 -6 -2 -5 -13z"/>
<path d="M2253 2630 c0 -47 2 -66 4 -42 2 23 2 61 0 85 -2 23 -4 4 -4 -43z"/>
<path d="M2258 2513 c5 -21 7 -23 10 -9 2 10 0 22 -6 28 -6 6 -7 0 -4 -19z"/>
<path d="M2480 2490 c0 -5 3 -9 8 -7 10 3 11 -15 1 -41 -5 -13 -9 -40 -8 -60
l1 -37 8 40 c5 22 13 53 19 68 6 16 9 33 5 38 -7 12 -34 12 -34 -1z"/>
<path d="M2331 2394 c-2 -20 24 -35 37 -22 7 7 12 8 12 2 0 -5 -4 -14 -9 -19
-6 -6 -2 -19 10 -34 16 -20 19 -21 16 -5 -1 11 -6 25 -10 32 -5 6 -4 12 0 12
5 0 10 10 10 22 2 16 0 19 -6 9 -6 -10 -10 -10 -16 -2 -5 9 -10 9 -20 1 -10
-8 -14 -7 -18 2 -3 8 -6 8 -6 2z"/>
<path d="M2325 2280 c10 -11 20 -20 23 -20 3 0 -3 9 -13 20 -10 11 -20 20 -23
20 -3 0 3 -9 13 -20z"/>
<path d="M2450 2279 c0 -5 5 -7 10 -4 6 3 10 8 10 11 0 2 -4 4 -10 4 -5 0 -10
-5 -10 -11z"/>
<path d="M2390 2226 c0 -2 8 -10 18 -17 15 -13 16 -12 3 4 -13 16 -21 21 -21
13z"/>
<path d="M2430 2186 c0 -3 9 -10 20 -16 11 -6 20 -8 20 -6 0 3 -9 10 -20 16
-11 6 -20 8 -20 6z"/>
<path d="M2410 1736 c0 -2 18 -6 39 -8 22 -2 37 0 35 4 -5 8 -74 11 -74 4z"/>
</g>
</svg>
